# xmcd
#
# Track frame offsets:
#	150
#	15854
#	41518
#	58880
#	81151
#	118321
#	132778
#	156618
#	176441
#	186553
#	207052
#
# Disc length: 2960 seconds
#
# Revision: 1
# Processed by: cddbd v1.5.2PL0 Copyright (c) Steve Scherf et al.
# Submitted via: audiograbber 1.83.01
#
DISCID=970b8e0b
DTITLE=Joe Bonamassa - Sloe Gin
DYEAR=2007
DGENRE=Blues
TTITLE0=Ball Peen Hammer
TTITLE1=One of these days
TTITLE2=Seagull
TTITLE3=Dirty in my pocket
TTITLE4=Sloe gin
TTITLE5=Another kind of love
TTITLE6=Around the bend
TTITLE7=Black night
TTITLE8=Jelly Roll
TTITLE9=Richmond
TTITLE10=India
EXTD=Provogue
EXTT0=Chris Whitley
EXTT1=
EXTT2=
EXTT3=
EXTT4=
EXTT5=John Mayall
EXTT6=
EXTT7=
EXTT8=John Martyn
EXTT9=
EXTT10=
PLAYORDER=
